General

Format                           : MPEG-4
Format profile                   : Base Media
Codec ID                         : isom
File size                        : 61.5 MiB
Duration                         : 6mn 17s
Overall bit rate                 : 1 369 Kbps
Encoded date                     : UTC 2012-04-25 22:21:36
Tagged date                      : UTC 2012-04-25 22:21:36

Video
ID                               : 1
Format                           : AVC
Format/Info                      : Advanced Video Codec
Format profile                   : High@L3.0
Format settings, CABAC           : Yes
Format settings, ReFrames        : 2 frames
Codec ID                         : avc1
Codec ID/Info                    : Advanced Video Coding
Duration                         : 6mn 17s
Bit rate mode                    : Variable
Bit rate                         : 1 286 Kbps
Maximum bit rate                 : 8 116 Kbps
Width                            : 720 pixels
Height                           : 480 pixels
Display aspect ratio             : 16:9
Original display aspect ratio    : 16:9
Frame rate mode                  : Constant
Frame rate                       : 29.970 fps
Standard                         : NTSC
Color space                      : YUV
Chroma subsampling               : 4:2:0
Bit depth                        : 8 bits
Scan type                        : Progressive
Bits/(Pixel*Frame)               : 0.124
Stream size                      : 58.6 MiB (95%)


Audio
ID                               : 2
Format                           : AAC
Format/Info                      : Advanced Audio Codec
Format profile                   : LC
Codec ID                         : 40
Duration                         : 6mn 16s
Bit rate mode                    : Variable
Bit rate                         : 57.7 Kbps
Maximum bit rate                 : 78.2 Kbps
Channel(s)                       : 2 channels
Channel positions                : Front: L R
Sampling rate                    : 44.1 KHz
Compression mode                 : Lossy
Stream size                      : 2.59 MiB (4%)